<?xml version="1.0" encoding="UTF-8" standalone="no"?>
<svg width="323px" height="70px" viewBox="0 0 323 70" version="1.1" xmlns="http://www.w3.org/2000/svg" xmlns:xlink="http://www.w3.org/1999/xlink">
    <!-- Generator: Sketch 3.7.2 (28276) - http://www.bohemiancoding.com/sketch -->
    <title>brand</title>
    <desc>Created with Sketch.</desc>
    <defs>
        <rect id="path-1" x="0" y="0" width="323" height="57.8846154" rx="15"></rect>
        <mask id="mask-2" maskContentUnits="userSpaceOnUse" maskUnits="objectBoundingBox" x="0" y="0" width="323" height="57.8846154" fill="white">
            <use xlink:href="#path-1"></use>
        </mask>
        <linearGradient x1="50%" y1="0%" x2="50%" y2="100%" id="linearGradient-3">
            <stop stop-color="#3FE7FE" offset="0%"></stop>
            <stop stop-color="#1ECAFB" offset="45.1590402%"></stop>
            <stop stop-color="#4EB4FF" offset="83.4941008%"></stop>
        </linearGradient>
        <path d="M0,32.5840318 C0,32.5840318 79.8107736,58.4452226 160.552319,40.3047729 C241.293864,22.1643233 323,32.5840318 323,32.5840318 L323,54.9970835 C323,63.2829655 316.290805,70 308.001932,70 L14.9980681,70 C6.7148638,70 0,63.2891805 0,54.9970835 L0,32.5840318 Z" id="path-4"></path>
        <mask id="mask-5" maskContentUnits="userSpaceOnUse" maskUnits="objectBoundingBox" x="0" y="0" width="323" height="40.3941143" fill="white">
            <use xlink:href="#path-4"></use>
        </mask>
    </defs>
    <g id="Page-1" stroke="none" stroke-width="1" fill="none" fill-rule="evenodd">
        <g id="brand">
            <g id="Group" stroke="#FFFFFF" stroke-width="6">
                <use id="Rectangle-7" mask="url(#mask-2)" fill="#4990E2" xlink:href="#path-1"></use>
                <use id="Rectangle" mask="url(#mask-5)" fill="url(#linearGradient-3)" xlink:href="#path-4"></use>
            </g>
            <path d="M24,10.68359 L44.5248694,10.68359 C50.119632,10.68359 54.098793,12.354571 56.4624717,15.6965833 C57.8503198,17.6714087 58.5442334,19.9500192 58.5442334,22.5324832 C58.5442334,25.5489747 57.6876838,28.0228947 55.9745588,29.9543174 C55.0854687,30.9742821 53.8060654,31.9074274 52.1363107,32.7537811 C54.5867299,33.6869404 56.4190956,34.7394414 57.6334627,35.9113159 C59.7802902,37.9946482 60.8536878,40.8700376 60.8536878,44.5375705 C60.8536878,47.6191662 59.8887142,50.4077515 57.958738,52.9034099 C55.0746162,56.636047 50.4882808,58.5023375 44.1995941,58.5023375 L24,58.5023375 L24,10.68359 Z M84.6025639,24.5995291 C86.9228724,25.7605528 88.6901837,27.2633507 89.9045508,29.1079679 C91.0755476,30.8657795 91.8562004,32.9165289 92.2465327,35.2602778 C92.5934947,36.8661798 92.7669731,39.426904 92.7669731,42.9425272 L67.2328646,42.9425272 C67.3412903,46.4798518 68.1761551,49.3172644 69.7374842,51.4548502 C71.2988133,53.5924359 73.7166686,54.6612128 76.9911227,54.6612128 C80.0487255,54.6612128 82.4882656,53.6521138 84.3098162,51.6338857 C85.3507022,50.4620112 86.0879855,49.1056955 86.521688,47.5648976 L92.2790602,47.5648976 C92.1272644,48.8452789 91.6230927,50.2721231 90.7665302,51.845473 C89.9099678,53.418823 88.9504153,54.7046103 87.8878441,55.7028737 C86.1096638,57.438984 83.9086565,58.6108408 81.2847562,59.2184794 C79.875223,59.5657014 78.2813901,59.7393098 76.5032098,59.7393098 C72.1661845,59.7393098 68.4906107,58.1605583 65.4763782,55.0030078 C62.4621456,51.8454573 60.955052,47.4238678 60.955052,41.7381067 C60.955052,36.1391512 62.472988,31.5927807 65.5089057,28.0988588 C68.5448234,24.6049369 72.513142,22.8580022 77.4139805,22.8580022 C79.8860849,22.8580022 82.2822554,23.4385054 84.6025639,24.5995291 Z M113.718482,37.3761516 C115.06296,37.2025405 115.962879,36.6383132 116.418267,35.6834525 C116.678488,35.1626195 116.808597,34.4139331 116.808597,33.4373711 C116.808597,31.4408443 116.09842,29.9922991 114.678044,29.0916919 C113.257668,28.1910847 111.224718,27.7407879 108.579133,27.7407879 C105.52153,27.7407879 103.35305,28.5654279 102.073627,30.2147326 C101.358018,31.1261905 100.891795,32.4825063 100.674944,34.2837206 L95.2103192,34.2837206 C95.3187448,29.9868478 96.7119933,26.9975278 99.3901064,25.315671 C102.068219,23.6338142 105.174567,22.7928984 108.709243,22.7928984 C112.807732,22.7928984 116.136349,23.5741363 118.695194,25.1366355 C121.232353,26.6991347 122.500914,29.1296526 122.500914,32.4282621 L122.500914,52.5127871 C122.500914,53.1204257 122.625602,53.6086993 122.874981,53.9776228 C123.12436,54.3465462 123.650216,54.5310052 124.452566,54.5310052 C124.712787,54.5310052 125.005532,54.5147294 125.330809,54.4821773 C125.656086,54.4496252 126.003043,54.4007979 126.37169,54.3356937 L126.37169,58.665097 C125.460915,58.9255135 124.767001,59.0882714 124.289928,59.1533756 C123.812855,59.2184797 123.162311,59.2510313 122.338277,59.2510313 C120.32156,59.2510313 118.857836,58.5348965 117.94706,57.1026056 C117.469988,56.3430574 117.133873,55.2688553 116.938707,53.8799671 C115.746025,55.4424663 114.032926,56.7987821 111.799358,57.9489551 C109.56579,59.0991281 107.104565,59.674206 104.415609,59.674206 C101.184525,59.674206 98.5444009,58.6922334 96.4951565,56.7282587 C94.4459121,54.764284 93.4213052,52.3066398 93.4213052,49.3552524 C93.4213052,46.121747 94.4296485,43.6152755 96.4463652,41.8357625 C98.4630819,40.0562495 101.108628,38.9603463 104.383082,38.5480201 L113.718482,37.3761516 Z M150.201885,25.4947065 C152.663147,27.4044277 154.143134,30.6921372 154.641892,35.3579335 L148.949575,35.3579335 C148.602613,33.2094971 147.811118,31.4245855 146.575065,30.0031452 C145.339013,28.581705 143.354854,27.8709955 140.622528,27.8709955 C136.892686,27.8709955 134.225456,29.6938839 132.620757,33.3397154 C131.57987,35.7051656 131.059435,38.6239572 131.059435,42.0961777 C131.059435,45.5900996 131.796718,48.5305922 133.271307,50.9177438 C134.745896,53.3048954 137.066169,54.4984532 140.232198,54.4984532 C142.660932,54.4984532 144.585458,53.7551922 146.005834,52.2686478 C147.42621,50.7821034 148.407447,48.7476297 148.949575,46.1651657 L154.641892,46.1651657 C153.991338,50.7875593 152.364978,54.1674982 149.762763,56.3050839 C147.160548,58.4426697 143.831931,59.5114465 139.776812,59.5114465 C135.222936,59.5114465 131.590732,57.8458907 128.880091,54.5147292 C126.16945,51.1835677 124.81415,47.0223908 124.81415,42.0310739 C124.81415,35.9112853 126.299559,31.1479042 129.270421,27.7407879 C132.241284,24.3336715 136.025281,22.6301389 140.622528,22.6301389 C144.547536,22.6301389 147.740623,23.5849852 150.201885,25.4947065 Z M155.588972,10.5208305 L161.443927,10.5208305 L161.443927,28.3592741 C162.831775,26.6014624 164.078651,25.3645024 165.184592,24.648357 C167.071198,23.4113784 169.423999,22.7928984 172.243066,22.7928984 C177.2957,22.7928984 180.721899,24.5615342 182.521764,28.0988588 C183.497595,30.0302815 183.985503,32.7103615 183.985503,36.1391792 L183.985503,58.5023375 L177.96791,58.5023375 L177.96791,36.529802 C177.96791,33.9690394 177.642638,32.0918984 176.992085,30.8983226 C175.929513,28.9886013 173.934512,28.033755 171.00702,28.033755 C168.578285,28.033755 166.377278,28.8692455 164.403932,30.5402516 C162.430585,32.2112578 161.443927,35.3687609 161.443927,40.0128558 L161.443927,58.5023375 L155.588972,58.5023375 L155.588972,10.5208305 Z M190.462262,12.9947752 C191.828425,10.9982484 194.463128,10 198.366451,10 C198.735098,10 199.114582,10.0108505 199.504915,10.0325519 C199.895247,10.0542533 200.339785,10.0868049 200.838543,10.1302076 L200.838543,15.4687199 C200.23136,15.4253172 199.792242,15.3981909 199.521178,15.3873402 C199.250114,15.3764895 198.995318,15.3710642 198.756782,15.3710642 C196.978601,15.3710642 195.916046,15.8322116 195.569084,16.7545202 C195.222122,17.6768287 195.048643,20.0259677 195.048643,23.8020074 L200.838543,23.8020074 L200.838543,28.4243779 L194.983588,28.4243779 L194.983588,58.5023375 L189.193689,58.5023375 L189.193689,28.4243779 L184.347087,28.4243779 L184.347087,23.8020074 L189.193689,23.8020074 L189.193689,18.3332875 C189.280429,15.9027332 189.703283,14.1232469 190.462262,12.9947752 Z M201.492875,23.6392479 L207.055082,23.6392479 L207.055082,29.6613502 C207.51047,28.4894758 208.627237,27.0626316 210.405418,25.3807748 C212.183598,23.698918 214.232812,22.8580022 216.55312,22.8580022 C216.661546,22.8580022 216.845867,22.8688527 217.106088,22.8905541 C217.36631,22.9122555 217.810848,22.9556576 218.439717,23.0207617 L218.439717,29.2056236 C218.092755,29.1405194 217.772904,29.0971173 217.480155,29.0754159 C217.187405,29.0537146 216.867555,29.042864 216.520593,29.042864 C213.571415,29.042864 211.305354,29.9922851 209.72234,31.8911557 C208.139325,33.7900263 207.34783,35.9764073 207.34783,38.4503644 L207.34783,58.5023375 L201.492875,58.5023375 L201.492875,23.6392479 Z M244.042662,27.1223017 C247.143635,30.1170919 248.694098,34.5224055 248.694098,40.3383749 C248.694098,45.9590318 247.327956,50.603057 244.59563,54.2705899 C241.863304,57.9381228 237.623925,59.7718618 231.877367,59.7718618 C227.084954,59.7718618 223.279271,58.1497081 220.460205,54.9053521 C217.641139,51.660996 216.231626,47.3045097 216.231626,41.8357625 C216.231626,35.9763904 217.717035,31.3106641 220.687898,27.8384436 C223.65876,24.3662231 227.648763,22.6301389 232.658027,22.6301389 C237.146849,22.6301389 240.941689,24.1275115 244.042662,27.1223017 Z M250.747114,23.6392479 L256.309321,23.6392479 L256.309321,28.5871374 C257.957391,26.5472078 259.703017,25.0823868 261.546253,24.1926303 C263.389489,23.3028738 265.438702,22.8580022 267.693955,22.8580022 C272.638164,22.8580022 275.977623,24.5832359 277.712434,28.033755 C278.666579,29.9217749 279.143645,32.6235559 279.143645,36.1391792 L279.143645,58.5023375 L273.191107,58.5023375 L273.191107,36.529802 C273.191107,34.403067 272.876678,32.6886838 272.247809,31.3866012 C271.206923,29.2164634 269.320345,28.1314107 266.588019,28.1314107 C265.200171,28.1314107 264.061719,28.2724676 263.172629,28.5545855 C261.56793,29.0320158 260.158418,29.9868621 258.944051,31.4191531 C257.96822,32.5693261 257.33394,33.7574587 257.04119,34.9835866 C256.748441,36.2097144 256.602069,37.9620744 256.602069,40.2407191 L256.602069,58.5023375 L250.747114,58.5023375 L250.747114,23.6392479 Z M284.059083,13.9062285 L289.979093,13.9062285 L289.979093,23.6392479 L295.5413,23.6392479 L295.5413,28.4243779 L289.979093,28.4243779 L289.979093,51.178159 C289.979093,52.3934362 290.391104,53.2072256 291.215139,53.6195518 C291.670526,53.858267 292.429494,53.9776228 293.492066,53.9776228 C293.773972,53.9776228 294.077559,53.9721975 294.402836,53.9613468 C294.728113,53.9504961 295.107597,53.9233698 295.5413,53.8799671 L295.5413,58.5023375 C294.869061,58.6976499 294.169726,58.8387067 293.443274,58.9255122 C292.716823,59.0123177 291.930749,59.0557199 291.085029,59.0557199 C288.352703,59.0557199 286.498652,58.3558609 285.522822,56.956122 C284.546991,55.5563831 284.059083,53.73892 284.059083,51.503678 L284.059083,28.4243779 L279.342591,28.4243779 L279.342591,23.6392479 L284.059083,23.6392479 L284.059083,13.9062285 Z M86.7493807,38.2876049 C86.5108443,35.7485436 85.9578819,33.7194952 85.0904768,32.2003988 C83.4857775,29.3792196 80.8077046,27.9686512 77.0561777,27.9686512 C74.3672221,27.9686512 72.1120027,28.9397733 70.2904521,30.8820466 C68.4689015,32.82432 67.5039279,35.2928147 67.3955023,38.2876049 L86.7493807,38.2876049 Z M101.390549,53.228929 C102.626601,54.205491 104.090326,54.6937647 105.781765,54.6937647 C107.841852,54.6937647 109.836854,54.2163415 111.76683,53.2614809 C115.019599,51.6772803 116.645959,49.0840045 116.645959,45.4815757 L116.645959,40.7615496 C115.93035,41.2172785 115.008746,41.597047 113.88112,41.9008663 C112.753493,42.2046856 111.647568,42.4216961 110.563312,42.5519043 L107.017811,43.007631 C104.892669,43.2897489 103.298836,43.7346205 102.236265,44.3422591 C100.436399,45.3622239 99.5364802,46.9898028 99.5364802,49.2250447 C99.5364802,50.9177522 100.154497,52.252367 101.390549,53.228929 Z M44.2971767,52.9685137 C48.2655548,52.9685137 51.0954214,51.818358 52.7868612,49.5180119 C53.8494324,48.0640195 54.38071,46.3062343 54.38071,44.2446034 C54.38071,40.7723829 52.8302467,38.4069682 49.7292737,37.1482882 C48.0812041,36.4755455 45.9018816,36.1391792 43.1912408,36.1391792 L30.3428677,36.1391792 L30.3428677,52.9685137 L44.2971767,52.9685137 Z M42.1178324,30.8983226 C44.8501583,30.8983226 46.9752688,30.5185542 48.4932277,29.7590059 C50.8785916,28.5654301 52.0712556,26.4170259 52.0712556,23.3137289 C52.0712556,20.1887304 50.8026948,18.0837283 48.265535,16.9986594 C46.8343166,16.3910208 44.7092061,16.0872061 41.8901397,16.0872061 L30.3428677,16.0872061 L30.3428677,30.8983226 L42.1178324,30.8983226 Z M242.578923,40.5011344 C242.578923,37.2459277 242.058488,34.5983993 241.017602,32.5584697 C239.369532,29.3466658 236.528823,27.7407879 232.49539,27.7407879 C228.917344,27.7407879 226.315168,29.1079542 224.688783,31.8423278 C223.062399,34.5767015 222.249219,37.8752614 222.249219,41.7381067 C222.249219,45.4490424 223.062399,48.5414424 224.688783,51.0153995 C226.315168,53.4893566 228.895659,54.7263166 232.430335,54.7263166 C236.311972,54.7263166 238.973782,53.2560703 240.415843,50.3155335 C241.857904,47.3749968 242.578923,44.1035631 242.578923,40.5011344 Z" id="blue-copy" fill="#4A90E2"></path>
            <path d="M26,10.68359 L46.5248694,10.68359 C52.119632,10.68359 56.098793,12.354571 58.4624717,15.6965833 C59.8503198,17.6714087 60.5442334,19.9500192 60.5442334,22.5324832 C60.5442334,25.5489747 59.6876838,28.0228947 57.9745588,29.9543174 C57.0854687,30.9742821 55.8060654,31.9074274 54.1363107,32.7537811 C56.5867299,33.6869404 58.4190956,34.7394414 59.6334627,35.9113159 C61.7802902,37.9946482 62.8536878,40.8700376 62.8536878,44.5375705 C62.8536878,47.6191662 61.8887142,50.4077515 59.958738,52.9034099 C57.0746162,56.636047 52.4882808,58.5023375 46.1995941,58.5023375 L26,58.5023375 L26,10.68359 Z M86.6025639,24.5995291 C88.9228724,25.7605528 90.6901837,27.2633507 91.9045508,29.1079679 C93.0755476,30.8657795 93.8562004,32.9165289 94.2465327,35.2602778 C94.5934947,36.8661798 94.7669731,39.426904 94.7669731,42.9425272 L69.2328646,42.9425272 C69.3412903,46.4798518 70.1761551,49.3172644 71.7374842,51.4548502 C73.2988133,53.5924359 75.7166686,54.6612128 78.9911227,54.6612128 C82.0487255,54.6612128 84.4882656,53.6521138 86.3098162,51.6338857 C87.3507022,50.4620112 88.0879855,49.1056955 88.521688,47.5648976 L94.2790602,47.5648976 C94.1272644,48.8452789 93.6230927,50.2721231 92.7665302,51.845473 C91.9099678,53.418823 90.9504153,54.7046103 89.8878441,55.7028737 C88.1096638,57.438984 85.9086565,58.6108408 83.2847562,59.2184794 C81.875223,59.5657014 80.2813901,59.7393098 78.5032098,59.7393098 C74.1661845,59.7393098 70.4906107,58.1605583 67.4763782,55.0030078 C64.4621456,51.8454573 62.955052,47.4238678 62.955052,41.7381067 C62.955052,36.1391512 64.472988,31.5927807 67.5089057,28.0988588 C70.5448234,24.6049369 74.513142,22.8580022 79.4139805,22.8580022 C81.8860849,22.8580022 84.2822554,23.4385054 86.6025639,24.5995291 Z M115.718482,37.3761516 C117.06296,37.2025405 117.962879,36.6383132 118.418267,35.6834525 C118.678488,35.1626195 118.808597,34.4139331 118.808597,33.4373711 C118.808597,31.4408443 118.09842,29.9922991 116.678044,29.0916919 C115.257668,28.1910847 113.224718,27.7407879 110.579133,27.7407879 C107.52153,27.7407879 105.35305,28.5654279 104.073627,30.2147326 C103.358018,31.1261905 102.891795,32.4825063 102.674944,34.2837206 L97.2103192,34.2837206 C97.3187448,29.9868478 98.7119933,26.9975278 101.390106,25.315671 C104.068219,23.6338142 107.174567,22.7928984 110.709243,22.7928984 C114.807732,22.7928984 118.136349,23.5741363 120.695194,25.1366355 C123.232353,26.6991347 124.500914,29.1296526 124.500914,32.4282621 L124.500914,52.5127871 C124.500914,53.1204257 124.625602,53.6086993 124.874981,53.9776228 C125.12436,54.3465462 125.650216,54.5310052 126.452566,54.5310052 C126.712787,54.5310052 127.005532,54.5147294 127.330809,54.4821773 C127.656086,54.4496252 128.003043,54.4007979 128.37169,54.3356937 L128.37169,58.665097 C127.460915,58.9255135 126.767001,59.0882714 126.289928,59.1533756 C125.812855,59.2184797 125.162311,59.2510313 124.338277,59.2510313 C122.32156,59.2510313 120.857836,58.5348965 119.94706,57.1026056 C119.469988,56.3430574 119.133873,55.2688553 118.938707,53.8799671 C117.746025,55.4424663 116.032926,56.7987821 113.799358,57.9489551 C111.56579,59.0991281 109.104565,59.674206 106.415609,59.674206 C103.184525,59.674206 100.544401,58.6922334 98.4951565,56.7282587 C96.4459121,54.764284 95.4213052,52.3066398 95.4213052,49.3552524 C95.4213052,46.121747 96.4296485,43.6152755 98.4463652,41.8357625 C100.463082,40.0562495 103.108628,38.9603463 106.383082,38.5480201 L115.718482,37.3761516 Z M152.201885,25.4947065 C154.663147,27.4044277 156.143134,30.6921372 156.641892,35.3579335 L150.949575,35.3579335 C150.602613,33.2094971 149.811118,31.4245855 148.575065,30.0031452 C147.339013,28.581705 145.354854,27.8709955 142.622528,27.8709955 C138.892686,27.8709955 136.225456,29.6938839 134.620757,33.3397154 C133.57987,35.7051656 133.059435,38.6239572 133.059435,42.0961777 C133.059435,45.5900996 133.796718,48.5305922 135.271307,50.9177438 C136.745896,53.3048954 139.066169,54.4984532 142.232198,54.4984532 C144.660932,54.4984532 146.585458,53.7551922 148.005834,52.2686478 C149.42621,50.7821034 150.407447,48.7476297 150.949575,46.1651657 L156.641892,46.1651657 C155.991338,50.7875593 154.364978,54.1674982 151.762763,56.3050839 C149.160548,58.4426697 145.831931,59.5114465 141.776812,59.5114465 C137.222936,59.5114465 133.590732,57.8458907 130.880091,54.5147292 C128.16945,51.1835677 126.81415,47.0223908 126.81415,42.0310739 C126.81415,35.9112853 128.299559,31.1479042 131.270421,27.7407879 C134.241284,24.3336715 138.025281,22.6301389 142.622528,22.6301389 C146.547536,22.6301389 149.740623,23.5849852 152.201885,25.4947065 Z M157.588972,10.5208305 L163.443927,10.5208305 L163.443927,28.3592741 C164.831775,26.6014624 166.078651,25.3645024 167.184592,24.648357 C169.071198,23.4113784 171.423999,22.7928984 174.243066,22.7928984 C179.2957,22.7928984 182.721899,24.5615342 184.521764,28.0988588 C185.497595,30.0302815 185.985503,32.7103615 185.985503,36.1391792 L185.985503,58.5023375 L179.96791,58.5023375 L179.96791,36.529802 C179.96791,33.9690394 179.642638,32.0918984 178.992085,30.8983226 C177.929513,28.9886013 175.934512,28.033755 173.00702,28.033755 C170.578285,28.033755 168.377278,28.8692455 166.403932,30.5402516 C164.430585,32.2112578 163.443927,35.3687609 163.443927,40.0128558 L163.443927,58.5023375 L157.588972,58.5023375 L157.588972,10.5208305 Z M192.462262,12.9947752 C193.828425,10.9982484 196.463128,10 200.366451,10 C200.735098,10 201.114582,10.0108505 201.504915,10.0325519 C201.895247,10.0542533 202.339785,10.0868049 202.838543,10.1302076 L202.838543,15.4687199 C202.23136,15.4253172 201.792242,15.3981909 201.521178,15.3873402 C201.250114,15.3764895 200.995318,15.3710642 200.756782,15.3710642 C198.978601,15.3710642 197.916046,15.8322116 197.569084,16.7545202 C197.222122,17.6768287 197.048643,20.0259677 197.048643,23.8020074 L202.838543,23.8020074 L202.838543,28.4243779 L196.983588,28.4243779 L196.983588,58.5023375 L191.193689,58.5023375 L191.193689,28.4243779 L186.347087,28.4243779 L186.347087,23.8020074 L191.193689,23.8020074 L191.193689,18.3332875 C191.280429,15.9027332 191.703283,14.1232469 192.462262,12.9947752 Z M203.492875,23.6392479 L209.055082,23.6392479 L209.055082,29.6613502 C209.51047,28.4894758 210.627237,27.0626316 212.405418,25.3807748 C214.183598,23.698918 216.232812,22.8580022 218.55312,22.8580022 C218.661546,22.8580022 218.845867,22.8688527 219.106088,22.8905541 C219.36631,22.9122555 219.810848,22.9556576 220.439717,23.0207617 L220.439717,29.2056236 C220.092755,29.1405194 219.772904,29.0971173 219.480155,29.0754159 C219.187405,29.0537146 218.867555,29.042864 218.520593,29.042864 C215.571415,29.042864 213.305354,29.9922851 211.72234,31.8911557 C210.139325,33.7900263 209.34783,35.9764073 209.34783,38.4503644 L209.34783,58.5023375 L203.492875,58.5023375 L203.492875,23.6392479 Z M246.042662,27.1223017 C249.143635,30.1170919 250.694098,34.5224055 250.694098,40.3383749 C250.694098,45.9590318 249.327956,50.603057 246.59563,54.2705899 C243.863304,57.9381228 239.623925,59.7718618 233.877367,59.7718618 C229.084954,59.7718618 225.279271,58.1497081 222.460205,54.9053521 C219.641139,51.660996 218.231626,47.3045097 218.231626,41.8357625 C218.231626,35.9763904 219.717035,31.3106641 222.687898,27.8384436 C225.65876,24.3662231 229.648763,22.6301389 234.658027,22.6301389 C239.146849,22.6301389 242.941689,24.1275115 246.042662,27.1223017 Z M252.747114,23.6392479 L258.309321,23.6392479 L258.309321,28.5871374 C259.957391,26.5472078 261.703017,25.0823868 263.546253,24.1926303 C265.389489,23.3028738 267.438702,22.8580022 269.693955,22.8580022 C274.638164,22.8580022 277.977623,24.5832359 279.712434,28.033755 C280.666579,29.9217749 281.143645,32.6235559 281.143645,36.1391792 L281.143645,58.5023375 L275.191107,58.5023375 L275.191107,36.529802 C275.191107,34.403067 274.876678,32.6886838 274.247809,31.3866012 C273.206923,29.2164634 271.320345,28.1314107 268.588019,28.1314107 C267.200171,28.1314107 266.061719,28.2724676 265.172629,28.5545855 C263.56793,29.0320158 262.158418,29.9868621 260.944051,31.4191531 C259.96822,32.5693261 259.33394,33.7574587 259.04119,34.9835866 C258.748441,36.2097144 258.602069,37.9620744 258.602069,40.2407191 L258.602069,58.5023375 L252.747114,58.5023375 L252.747114,23.6392479 Z M286.059083,13.9062285 L291.979093,13.9062285 L291.979093,23.6392479 L297.5413,23.6392479 L297.5413,28.4243779 L291.979093,28.4243779 L291.979093,51.178159 C291.979093,52.3934362 292.391104,53.2072256 293.215139,53.6195518 C293.670526,53.858267 294.429494,53.9776228 295.492066,53.9776228 C295.773972,53.9776228 296.077559,53.9721975 296.402836,53.9613468 C296.728113,53.9504961 297.107597,53.9233698 297.5413,53.8799671 L297.5413,58.5023375 C296.869061,58.6976499 296.169726,58.8387067 295.443274,58.9255122 C294.716823,59.0123177 293.930749,59.0557199 293.085029,59.0557199 C290.352703,59.0557199 288.498652,58.3558609 287.522822,56.956122 C286.546991,55.5563831 286.059083,53.73892 286.059083,51.503678 L286.059083,28.4243779 L281.342591,28.4243779 L281.342591,23.6392479 L286.059083,23.6392479 L286.059083,13.9062285 Z M88.7493807,38.2876049 C88.5108443,35.7485436 87.9578819,33.7194952 87.0904768,32.2003988 C85.4857775,29.3792196 82.8077046,27.9686512 79.0561777,27.9686512 C76.3672221,27.9686512 74.1120027,28.9397733 72.2904521,30.8820466 C70.4689015,32.82432 69.5039279,35.2928147 69.3955023,38.2876049 L88.7493807,38.2876049 Z M103.390549,53.228929 C104.626601,54.205491 106.090326,54.6937647 107.781765,54.6937647 C109.841852,54.6937647 111.836854,54.2163415 113.76683,53.2614809 C117.019599,51.6772803 118.645959,49.0840045 118.645959,45.4815757 L118.645959,40.7615496 C117.93035,41.2172785 117.008746,41.597047 115.88112,41.9008663 C114.753493,42.2046856 113.647568,42.4216961 112.563312,42.5519043 L109.017811,43.007631 C106.892669,43.2897489 105.298836,43.7346205 104.236265,44.3422591 C102.436399,45.3622239 101.53648,46.9898028 101.53648,49.2250447 C101.53648,50.9177522 102.154497,52.252367 103.390549,53.228929 Z M46.2971767,52.9685137 C50.2655548,52.9685137 53.0954214,51.818358 54.7868612,49.5180119 C55.8494324,48.0640195 56.38071,46.3062343 56.38071,44.2446034 C56.38071,40.7723829 54.8302467,38.4069682 51.7292737,37.1482882 C50.0812041,36.4755455 47.9018816,36.1391792 45.1912408,36.1391792 L32.3428677,36.1391792 L32.3428677,52.9685137 L46.2971767,52.9685137 Z M44.1178324,30.8983226 C46.8501583,30.8983226 48.9752688,30.5185542 50.4932277,29.7590059 C52.8785916,28.5654301 54.0712556,26.4170259 54.0712556,23.3137289 C54.0712556,20.1887304 52.8026948,18.0837283 50.265535,16.9986594 C48.8343166,16.3910208 46.7092061,16.0872061 43.8901397,16.0872061 L32.3428677,16.0872061 L32.3428677,30.8983226 L44.1178324,30.8983226 Z M244.578923,40.5011344 C244.578923,37.2459277 244.058488,34.5983993 243.017602,32.5584697 C241.369532,29.3466658 238.528823,27.7407879 234.49539,27.7407879 C230.917344,27.7407879 228.315168,29.1079542 226.688783,31.8423278 C225.062399,34.5767015 224.249219,37.8752614 224.249219,41.7381067 C224.249219,45.4490424 225.062399,48.5414424 226.688783,51.0153995 C228.315168,53.4893566 230.895659,54.7263166 234.430335,54.7263166 C238.311972,54.7263166 240.973782,53.2560703 242.415843,50.3155335 C243.857904,47.3749968 244.578923,44.1035631 244.578923,40.5011344 Z" id="blue" fill="#FFFFFF"></path>
        </g>
    </g>
</svg>