<?xml version="1.0" encoding="UTF-8" standalone="no"?>
<svg width="323px" height="70px" viewBox="0 0 323 70" version="1.1" xmlns="http://www.w3.org/2000/svg" xmlns:xlink="http://www.w3.org/1999/xlink">
    <!-- Generator: Sketch 3.7.2 (28276) - http://www.bohemiancoding.com/sketch -->
    <title>brand-experimental</title>
    <desc>Created with Sketch.</desc>
    <defs>
        <linearGradient x1="50%" y1="0%" x2="50%" y2="100%" id="linearGradient-1">
            <stop stop-color="#E9E9E9" offset="0%"></stop>
            <stop stop-color="#EBDDDD" offset="100%"></stop>
        </linearGradient>
        <rect id="path-2" x="0" y="0" width="323" height="70" rx="15"></rect>
        <mask id="mask-3" maskContentUnits="userSpaceOnUse" maskUnits="objectBoundingBox" x="0" y="0" width="323" height="70" fill="white">
            <use xlink:href="#path-2"></use>
        </mask>
        <linearGradient x1="50%" y1="0%" x2="50%" y2="100%" id="linearGradient-4">
            <stop stop-color="#3FE7FE" offset="0%"></stop>
            <stop stop-color="#1ECAFB" offset="45.1590402%"></stop>
            <stop stop-color="#4EB4FF" offset="83.4941008%"></stop>
        </linearGradient>
        <path d="M0,39.5840318 C0,39.5840318 79.8107736,65.4452226 160.552319,47.3047729 C241.293864,29.1643233 323,39.5840318 323,39.5840318 L323,54.9925066 C323,63.2809163 316.290805,70 308.001932,70 L14.9980681,70 C6.7148638,70 0,63.2874329 0,54.9925066 L0,39.5840318 Z" id="path-5"></path>
        <mask id="mask-6" maskContentUnits="userSpaceOnUse" maskUnits="objectBoundingBox" x="0" y="0" width="323" height="33.3941143" fill="white">
            <use xlink:href="#path-5"></use>
        </mask>
    </defs>
    <g id="Page-1" stroke="none" stroke-width="1" fill="none" fill-rule="evenodd">
        <g id="brand-experimental">
            <use id="Rectangle-7" stroke="#FFFFFF" mask="url(#mask-3)" stroke-width="6" fill="url(#linearGradient-1)" xlink:href="#path-2"></use>
            <path d="M29.0733152,26.8363978 C34.6680778,26.8363978 39.2372088,27.9575319 42.7808455,30.1998338 C44.8659413,31.5248303 46.3643596,33.0536496 47.2761452,34.7863374 C48.3411721,36.8102332 48.3580847,38.4700941 47.3268834,39.7659699 C46.7979102,40.4503087 45.8479707,41.0763966 44.4770365,41.6442523 C47.2569245,42.2703496 49.4608947,42.9765184 51.0890133,43.7627801 C53.9713989,45.1605787 56.0600048,47.089803 57.3548936,49.5505109 C58.4429066,51.6180879 58.4624934,53.4890715 57.4136546,55.1635177 C55.8474077,57.6679067 51.9199999,58.9200825 45.6313133,58.9200825 L25.4317192,58.9200825 L8.54844581,26.8363978 L29.0733152,26.8363978 Z M80.9580563,39.198117 C82.7496803,40.3775096 84.2543873,41.7534469 85.4722225,43.3259703 C86.3861773,44.40344 87.4637656,46.1215416 88.70502,48.4803267 L63.1709115,48.4803267 C64.5282535,50.8536722 66.3649182,52.7574161 68.6809606,54.1916157 C70.997003,55.6258153 73.7922093,56.3429043 77.0666633,56.3429043 C80.1242661,56.3429043 82.2075256,55.6658558 83.3165043,54.3117384 C83.9436389,53.5254767 84.2020503,52.6154653 84.0917463,51.5816768 L89.8491185,51.5816768 C90.1493844,52.4407405 90.1489859,53.3980725 89.8479231,54.4537016 C89.5468602,55.5093307 89.0412783,56.3720216 88.331162,57.0418001 C87.1659468,58.2066322 85.3786847,58.9928821 82.9693222,59.4005734 C81.682382,59.6335398 80.1498448,59.7500213 78.3716644,59.7500213 C74.0346392,59.7500213 69.8016586,58.6907679 65.6725957,56.5722295 C61.5435329,54.453691 58.4753171,51.4870537 56.4678564,47.6722284 C54.4910439,43.9156448 54.4038017,40.8652864 56.206127,38.5210617 C58.0084524,36.1768371 61.3599841,35.0047423 66.2608227,35.0047423 C68.7329271,35.0047423 71.3340547,35.3942272 74.0642836,36.1732087 C76.7945126,36.9521902 79.0924138,37.9604829 80.9580563,39.198117 Z M109.793366,43.6098967 C109.869698,43.260447 109.735469,42.7581207 109.390677,42.1029026 C108.685767,40.7633457 107.464154,39.7914535 105.725803,39.1871968 C103.987452,38.5829401 101.795516,38.2808163 99.1499306,38.2808163 C96.0923278,38.2808163 94.2150018,38.8341033 93.5178962,39.9406938 C93.1240937,40.5522307 93.1367423,41.4622421 93.5558423,42.6707555 L88.0912178,42.6707555 C86.6825548,39.7877959 87.0203698,37.7821307 89.1046729,36.6536996 C91.1889761,35.5252684 93.9984233,34.9610613 97.5330989,34.9610613 C101.631588,34.9610613 105.236035,35.4852279 108.346548,36.5335768 C111.435377,37.5819258 113.562076,39.2126663 114.72671,41.4258474 L121.817914,54.9014317 C122.032452,55.309123 122.329534,55.6367271 122.709168,55.8842539 C123.088802,56.1317808 123.679785,56.2555423 124.482134,56.2555423 C124.742356,56.2555423 125.029354,56.2446222 125.343138,56.2227816 C125.656922,56.200941 125.986639,56.1681806 126.3323,56.1244994 L127.860874,59.029285 C127.042044,59.2040098 126.405595,59.3132112 125.951508,59.3568924 C125.497421,59.4005736 124.85837,59.4224139 124.034336,59.4224139 C122.017619,59.4224139 120.30105,58.9419278 118.884579,57.9809413 C118.139334,57.4713272 117.423953,56.7505982 116.738415,55.8187325 C116.097401,56.8670814 114.863174,57.7770928 113.035695,58.5487941 C111.208217,59.3204954 108.950033,59.7063403 106.261078,59.7063403 C103.029994,59.7063403 100.043166,59.047492 97.3005051,57.7297756 C94.5578439,56.4120593 92.6655213,54.7631185 91.6234806,52.7829039 C90.4818331,50.613404 90.6052212,48.9317029 91.9936487,47.7377499 C93.3820762,46.543797 95.6406935,45.8085077 98.7695684,45.5318601 L107.691219,44.7456023 C108.974401,44.6291191 109.675109,44.2505544 109.793366,43.6098967 Z M147.902061,43.3914918 L142.209744,43.3914918 C141.104238,41.950012 139.682547,40.7524369 137.94463,39.7987306 C136.206712,38.8450243 133.971624,38.3681783 131.239298,38.3681783 C127.509456,38.3681783 125.48583,39.5912337 125.168357,42.0373812 C124.962636,43.6244649 125.472733,45.5828096 126.698663,47.9124739 C127.932255,50.2566985 129.707733,52.2296034 132.025148,53.8312476 C134.342564,55.4328918 137.084245,56.2337018 140.250273,56.2337018 C142.679007,56.2337018 144.341112,55.7350156 145.236636,54.737628 C146.132161,53.7402405 146.39509,52.3752233 146.025433,50.6425355 L151.71775,50.6425355 C152.699216,53.7439011 152.266204,56.0116496 150.418702,57.4458492 C148.5712,58.8800488 145.619934,59.5971378 141.564816,59.5971378 C137.010939,59.5971378 132.790681,58.4796437 128.903913,56.2446221 C125.017145,54.0096004 122.192667,51.2176853 120.430392,47.8687929 C118.26969,43.7627596 118.073301,40.5667994 119.841219,38.2808163 C121.609137,35.9948332 124.791672,34.8518589 129.388919,34.8518589 C133.313927,34.8518589 136.84414,35.4925069 139.979663,36.7738223 C143.115186,38.0551376 145.755959,40.2610054 147.902061,43.3914918 Z M145.934907,26.7271953 L152.233092,38.6957857 C153.000313,37.5163931 153.810458,36.6864627 154.663552,36.2059694 C156.11342,35.3760265 158.247855,34.9610613 161.066922,34.9610613 C166.119556,34.9610613 170.170204,36.1477163 173.218985,38.5210617 C174.87674,39.8169375 176.310899,41.6151201 177.521505,43.9156636 L185.417222,58.9200825 L179.39963,58.9200825 L171.641829,44.1777495 C170.737705,42.4596221 169.749675,41.2001663 168.677707,40.3993442 C166.940874,39.1180288 164.608747,38.4773808 161.681255,38.4773808 C159.252521,38.4773808 157.346498,39.0379478 155.963131,40.1590987 C154.579763,41.2802497 154.707918,43.3987563 156.3476,46.5146823 L162.875646,58.9200825 L157.020691,58.9200825 L140.079953,26.7271953 L145.934907,26.7271953 Z M182.673543,26.3777474 C183.04219,26.3777474 183.425505,26.3850275 183.8235,26.3995879 C184.221494,26.4141483 184.677525,26.4359886 185.191607,26.4651094 L187.076466,30.0469503 C186.453958,30.0178295 186.005263,29.9996293 185.730368,29.9923491 C185.455473,29.9850689 185.198761,29.9814288 184.960225,29.9814288 C183.182044,29.9814288 182.282306,30.2908327 182.260981,30.9096498 C182.239657,31.5284669 182.895585,33.1046067 184.228784,35.6381166 L190.018684,35.6381166 L191.650695,38.7394667 L185.79574,38.7394667 L196.415308,58.9200825 L190.625408,58.9200825 L180.00584,38.7394667 L175.159239,38.7394667 L173.527227,35.6381166 L178.373829,35.6381166 L176.442998,31.9689137 C175.671588,30.3381488 175.466162,29.1442137 175.826714,28.3870728 C176.487967,27.0475159 178.77022,26.3777474 182.673543,26.3777474 Z M196.177757,35.5289142 L198.30397,39.5694054 C198.345606,38.7831437 198.9586,37.8258117 200.14297,36.6973805 C201.327341,35.5689494 203.079654,35.0047423 205.399962,35.0047423 C205.508388,35.0047423 205.69654,35.0120224 205.964423,35.0265828 C206.232307,35.0411432 206.692169,35.0702636 207.344024,35.1139448 L209.527701,39.2636385 C209.157753,39.2199573 208.822578,39.1908369 208.522167,39.1762765 C208.221756,39.1617161 207.898074,39.154436 207.551112,39.154436 C204.601935,39.154436 202.671084,39.7914441 201.7585,41.0654792 C200.845916,42.3395144 200.826362,43.8064528 201.699838,45.4663386 L208.779549,58.9200825 L202.924594,58.9200825 L190.61555,35.5289142 L196.177757,35.5289142 Z M243.712702,46.7330872 C245.697176,50.5042313 245.970691,53.6201105 244.533254,56.0808184 C243.095817,58.5415263 239.503873,59.7718618 233.757315,59.7718618 C228.964902,59.7718618 224.586488,58.6834881 220.621943,56.506708 C216.657398,54.3299279 213.70975,51.4069712 211.77891,47.7377499 C209.710153,43.8064415 209.548243,40.6760021 211.293175,38.3463378 C213.038107,36.0166735 216.415154,34.8518589 221.424418,34.8518589 C225.91324,34.8518589 230.236754,35.8565115 234.395092,37.8658469 C238.55343,39.8751824 241.659269,42.8308996 243.712702,46.7330872 Z M245.431996,35.5289142 L247.178938,38.8486691 C248.106773,37.4799914 249.335218,36.497179 250.86431,35.9002025 C252.393401,35.3032261 254.285544,35.0047423 256.540798,35.0047423 C261.485006,35.0047423 265.433591,36.1622769 268.386669,38.4773808 C270.007414,39.7441357 271.438392,41.5568785 272.679647,43.9156636 L280.575364,58.9200825 L274.622827,58.9200825 L266.865026,44.1777495 C266.114143,42.7508301 265.19442,41.6005757 264.105827,40.7269516 C262.298735,39.2709114 260.02906,38.5429022 257.296734,38.5429022 C255.908886,38.5429022 254.820236,38.6375434 254.030753,38.8268286 C252.594619,39.1471575 251.522233,39.7878055 250.813562,40.7487921 C250.243821,41.5204933 250.029032,42.3176634 250.169189,43.1403261 C250.309347,43.9629888 250.781677,45.1387236 251.586193,46.6675658 L258.033788,58.9200825 L252.178833,58.9200825 L239.869789,35.5289142 L245.431996,35.5289142 Z M275.665349,28.9986066 L279.101768,35.5289142 L284.663975,35.5289142 L286.353452,38.7394667 L280.791244,38.7394667 L288.824878,54.0059715 C289.253954,54.821354 289.953288,55.3673609 290.922902,55.6440085 C291.462573,55.8041729 292.263681,55.8842539 293.326252,55.8842539 C293.608159,55.8842539 293.909831,55.8806139 294.231277,55.8733337 C294.552723,55.8660535 294.922629,55.8478533 295.341008,55.8187325 L296.973019,58.9200825 C296.369739,59.0511261 295.720206,59.1457673 295.024403,59.2040089 C294.3286,59.2622505 293.557849,59.2913709 292.712129,59.2913709 C289.979804,59.2913709 287.878655,58.821805 286.408621,57.8826591 C284.938588,56.9435132 283.808991,55.7240978 283.019799,54.2243764 L274.871235,38.7394667 L270.154743,38.7394667 L268.465267,35.5289142 L273.181758,35.5289142 L269.745339,28.9986066 L275.665349,28.9986066 Z M77.235821,41.2729639 C74.6350534,39.3801117 71.4589537,38.4336998 67.7074269,38.4336998 C65.0184712,38.4336998 63.1061242,39.085268 61.9703283,40.3884239 C60.8345324,41.6915799 60.7411054,43.3478007 61.6900446,45.3571362 L81.043923,45.3571362 C79.9089252,43.6535692 78.6395705,42.292192 77.235821,41.2729639 Z M105.868799,56.3647448 C107.928886,56.3647448 109.755325,56.0444208 111.34817,55.4037631 C114.041609,54.3408538 114.752366,52.6009119 113.480463,50.1838852 L111.813973,47.0170136 C111.259267,47.3227821 110.471747,47.5775853 109.451389,47.7814309 C108.431032,47.9852765 107.401726,48.1308784 106.363442,48.2182408 L102.978844,48.5240077 C100.953309,48.7132929 99.5165459,49.0117767 98.6685125,49.4194679 C97.228764,50.1038068 96.9034909,51.1958205 97.6926835,52.6955419 C98.2903245,53.8312532 99.3795512,54.7267045 100.960396,55.3819226 C102.541241,56.0371407 104.177359,56.3647448 105.868799,56.3647448 Z M51.0465018,52.8921064 C51.5957147,51.9165594 51.5063745,50.7371846 50.7784784,49.3539464 C49.5525482,47.0242822 47.1669325,45.4372222 43.6215597,44.5927189 C41.7359661,44.1413464 39.4378834,43.9156636 36.7272426,43.9156636 L23.8788695,43.9156636 L29.8207704,55.2071986 L43.7750794,55.2071986 C47.7434575,55.2071986 50.1672407,54.4355089 51.0465018,52.8921064 Z M39.776594,39.6349269 C41.7405443,38.8341048 42.1746755,37.3926467 41.0790003,35.3105092 C39.9756631,33.2138114 37.9638932,31.8014736 35.0436302,31.0734535 C33.3978741,30.6657623 31.1654963,30.4619197 28.3464299,30.4619197 L16.7991579,30.4619197 L22.0284904,40.3993442 L33.8034551,40.3993442 C36.535781,40.3993442 38.5268074,40.144541 39.776594,39.6349269 Z M233.289369,41.5132093 C230.507314,39.3582699 227.099621,38.2808163 223.066188,38.2808163 C219.488142,38.2808163 217.368669,39.1981079 216.707704,41.0327185 C216.04674,42.8673291 216.398176,45.0804769 217.762023,47.6722284 C219.072236,50.1620571 220.977244,52.2368833 223.477104,53.896769 C225.976964,55.5566548 228.994186,56.3865853 232.528862,56.3865853 C236.410499,56.3865853 238.553211,55.4001329 238.957063,53.4271984 C239.360914,51.454264 238.926895,49.2593164 237.654992,46.8422897 C236.505683,44.6582294 235.05049,42.8818871 233.289369,41.5132093 Z" id="blue-copy" fill="#CECECE"></path>
            <path d="M26,10.68359 L46.5248694,10.68359 C52.119632,10.68359 56.098793,12.354571 58.4624717,15.6965833 C59.8503198,17.6714087 60.5442334,19.9500192 60.5442334,22.5324832 C60.5442334,25.5489747 59.6876838,28.0228947 57.9745588,29.9543174 C57.0854687,30.9742821 55.8060654,31.9074274 54.1363107,32.7537811 C56.5867299,33.6869404 58.4190956,34.7394414 59.6334627,35.9113159 C61.7802902,37.9946482 62.8536878,40.8700376 62.8536878,44.5375705 C62.8536878,47.6191662 61.8887142,50.4077515 59.958738,52.9034099 C57.0746162,56.636047 52.4882808,58.5023375 46.1995941,58.5023375 L26,58.5023375 L26,10.68359 Z M86.6025639,24.5995291 C88.9228724,25.7605528 90.6901837,27.2633507 91.9045508,29.1079679 C93.0755476,30.8657795 93.8562004,32.9165289 94.2465327,35.2602778 C94.5934947,36.8661798 94.7669731,39.426904 94.7669731,42.9425272 L69.2328646,42.9425272 C69.3412903,46.4798518 70.1761551,49.3172644 71.7374842,51.4548502 C73.2988133,53.5924359 75.7166686,54.6612128 78.9911227,54.6612128 C82.0487255,54.6612128 84.4882656,53.6521138 86.3098162,51.6338857 C87.3507022,50.4620112 88.0879855,49.1056955 88.521688,47.5648976 L94.2790602,47.5648976 C94.1272644,48.8452789 93.6230927,50.2721231 92.7665302,51.845473 C91.9099678,53.418823 90.9504153,54.7046103 89.8878441,55.7028737 C88.1096638,57.438984 85.9086565,58.6108408 83.2847562,59.2184794 C81.875223,59.5657014 80.2813901,59.7393098 78.5032098,59.7393098 C74.1661845,59.7393098 70.4906107,58.1605583 67.4763782,55.0030078 C64.4621456,51.8454573 62.955052,47.4238678 62.955052,41.7381067 C62.955052,36.1391512 64.472988,31.5927807 67.5089057,28.0988588 C70.5448234,24.6049369 74.513142,22.8580022 79.4139805,22.8580022 C81.8860849,22.8580022 84.2822554,23.4385054 86.6025639,24.5995291 Z M115.718482,37.3761516 C117.06296,37.2025405 117.962879,36.6383132 118.418267,35.6834525 C118.678488,35.1626195 118.808597,34.4139331 118.808597,33.4373711 C118.808597,31.4408443 118.09842,29.9922991 116.678044,29.0916919 C115.257668,28.1910847 113.224718,27.7407879 110.579133,27.7407879 C107.52153,27.7407879 105.35305,28.5654279 104.073627,30.2147326 C103.358018,31.1261905 102.891795,32.4825063 102.674944,34.2837206 L97.2103192,34.2837206 C97.3187448,29.9868478 98.7119933,26.9975278 101.390106,25.315671 C104.068219,23.6338142 107.174567,22.7928984 110.709243,22.7928984 C114.807732,22.7928984 118.136349,23.5741363 120.695194,25.1366355 C123.232353,26.6991347 124.500914,29.1296526 124.500914,32.4282621 L124.500914,52.5127871 C124.500914,53.1204257 124.625602,53.6086993 124.874981,53.9776228 C125.12436,54.3465462 125.650216,54.5310052 126.452566,54.5310052 C126.712787,54.5310052 127.005532,54.5147294 127.330809,54.4821773 C127.656086,54.4496252 128.003043,54.4007979 128.37169,54.3356937 L128.37169,58.665097 C127.460915,58.9255135 126.767001,59.0882714 126.289928,59.1533756 C125.812855,59.2184797 125.162311,59.2510313 124.338277,59.2510313 C122.32156,59.2510313 120.857836,58.5348965 119.94706,57.1026056 C119.469988,56.3430574 119.133873,55.2688553 118.938707,53.8799671 C117.746025,55.4424663 116.032926,56.7987821 113.799358,57.9489551 C111.56579,59.0991281 109.104565,59.674206 106.415609,59.674206 C103.184525,59.674206 100.544401,58.6922334 98.4951565,56.7282587 C96.4459121,54.764284 95.4213052,52.3066398 95.4213052,49.3552524 C95.4213052,46.121747 96.4296485,43.6152755 98.4463652,41.8357625 C100.463082,40.0562495 103.108628,38.9603463 106.383082,38.5480201 L115.718482,37.3761516 Z M152.201885,25.4947065 C154.663147,27.4044277 156.143134,30.6921372 156.641892,35.3579335 L150.949575,35.3579335 C150.602613,33.2094971 149.811118,31.4245855 148.575065,30.0031452 C147.339013,28.581705 145.354854,27.8709955 142.622528,27.8709955 C138.892686,27.8709955 136.225456,29.6938839 134.620757,33.3397154 C133.57987,35.7051656 133.059435,38.6239572 133.059435,42.0961777 C133.059435,45.5900996 133.796718,48.5305922 135.271307,50.9177438 C136.745896,53.3048954 139.066169,54.4984532 142.232198,54.4984532 C144.660932,54.4984532 146.585458,53.7551922 148.005834,52.2686478 C149.42621,50.7821034 150.407447,48.7476297 150.949575,46.1651657 L156.641892,46.1651657 C155.991338,50.7875593 154.364978,54.1674982 151.762763,56.3050839 C149.160548,58.4426697 145.831931,59.5114465 141.776812,59.5114465 C137.222936,59.5114465 133.590732,57.8458907 130.880091,54.5147292 C128.16945,51.1835677 126.81415,47.0223908 126.81415,42.0310739 C126.81415,35.9112853 128.299559,31.1479042 131.270421,27.7407879 C134.241284,24.3336715 138.025281,22.6301389 142.622528,22.6301389 C146.547536,22.6301389 149.740623,23.5849852 152.201885,25.4947065 Z M157.588972,10.5208305 L163.443927,10.5208305 L163.443927,28.3592741 C164.831775,26.6014624 166.078651,25.3645024 167.184592,24.648357 C169.071198,23.4113784 171.423999,22.7928984 174.243066,22.7928984 C179.2957,22.7928984 182.721899,24.5615342 184.521764,28.0988588 C185.497595,30.0302815 185.985503,32.7103615 185.985503,36.1391792 L185.985503,58.5023375 L179.96791,58.5023375 L179.96791,36.529802 C179.96791,33.9690394 179.642638,32.0918984 178.992085,30.8983226 C177.929513,28.9886013 175.934512,28.033755 173.00702,28.033755 C170.578285,28.033755 168.377278,28.8692455 166.403932,30.5402516 C164.430585,32.2112578 163.443927,35.3687609 163.443927,40.0128558 L163.443927,58.5023375 L157.588972,58.5023375 L157.588972,10.5208305 Z M192.462262,12.9947752 C193.828425,10.9982484 196.463128,10 200.366451,10 C200.735098,10 201.114582,10.0108505 201.504915,10.0325519 C201.895247,10.0542533 202.339785,10.0868049 202.838543,10.1302076 L202.838543,15.4687199 C202.23136,15.4253172 201.792242,15.3981909 201.521178,15.3873402 C201.250114,15.3764895 200.995318,15.3710642 200.756782,15.3710642 C198.978601,15.3710642 197.916046,15.8322116 197.569084,16.7545202 C197.222122,17.6768287 197.048643,20.0259677 197.048643,23.8020074 L202.838543,23.8020074 L202.838543,28.4243779 L196.983588,28.4243779 L196.983588,58.5023375 L191.193689,58.5023375 L191.193689,28.4243779 L186.347087,28.4243779 L186.347087,23.8020074 L191.193689,23.8020074 L191.193689,18.3332875 C191.280429,15.9027332 191.703283,14.1232469 192.462262,12.9947752 Z M203.492875,23.6392479 L209.055082,23.6392479 L209.055082,29.6613502 C209.51047,28.4894758 210.627237,27.0626316 212.405418,25.3807748 C214.183598,23.698918 216.232812,22.8580022 218.55312,22.8580022 C218.661546,22.8580022 218.845867,22.8688527 219.106088,22.8905541 C219.36631,22.9122555 219.810848,22.9556576 220.439717,23.0207617 L220.439717,29.2056236 C220.092755,29.1405194 219.772904,29.0971173 219.480155,29.0754159 C219.187405,29.0537146 218.867555,29.042864 218.520593,29.042864 C215.571415,29.042864 213.305354,29.9922851 211.72234,31.8911557 C210.139325,33.7900263 209.34783,35.9764073 209.34783,38.4503644 L209.34783,58.5023375 L203.492875,58.5023375 L203.492875,23.6392479 Z M246.042662,27.1223017 C249.143635,30.1170919 250.694098,34.5224055 250.694098,40.3383749 C250.694098,45.9590318 249.327956,50.603057 246.59563,54.2705899 C243.863304,57.9381228 239.623925,59.7718618 233.877367,59.7718618 C229.084954,59.7718618 225.279271,58.1497081 222.460205,54.9053521 C219.641139,51.660996 218.231626,47.3045097 218.231626,41.8357625 C218.231626,35.9763904 219.717035,31.3106641 222.687898,27.8384436 C225.65876,24.3662231 229.648763,22.6301389 234.658027,22.6301389 C239.146849,22.6301389 242.941689,24.1275115 246.042662,27.1223017 Z M252.747114,23.6392479 L258.309321,23.6392479 L258.309321,28.5871374 C259.957391,26.5472078 261.703017,25.0823868 263.546253,24.1926303 C265.389489,23.3028738 267.438702,22.8580022 269.693955,22.8580022 C274.638164,22.8580022 277.977623,24.5832359 279.712434,28.033755 C280.666579,29.9217749 281.143645,32.6235559 281.143645,36.1391792 L281.143645,58.5023375 L275.191107,58.5023375 L275.191107,36.529802 C275.191107,34.403067 274.876678,32.6886838 274.247809,31.3866012 C273.206923,29.2164634 271.320345,28.1314107 268.588019,28.1314107 C267.200171,28.1314107 266.061719,28.2724676 265.172629,28.5545855 C263.56793,29.0320158 262.158418,29.9868621 260.944051,31.4191531 C259.96822,32.5693261 259.33394,33.7574587 259.04119,34.9835866 C258.748441,36.2097144 258.602069,37.9620744 258.602069,40.2407191 L258.602069,58.5023375 L252.747114,58.5023375 L252.747114,23.6392479 Z M286.059083,13.9062285 L291.979093,13.9062285 L291.979093,23.6392479 L297.5413,23.6392479 L297.5413,28.4243779 L291.979093,28.4243779 L291.979093,51.178159 C291.979093,52.3934362 292.391104,53.2072256 293.215139,53.6195518 C293.670526,53.858267 294.429494,53.9776228 295.492066,53.9776228 C295.773972,53.9776228 296.077559,53.9721975 296.402836,53.9613468 C296.728113,53.9504961 297.107597,53.9233698 297.5413,53.8799671 L297.5413,58.5023375 C296.869061,58.6976499 296.169726,58.8387067 295.443274,58.9255122 C294.716823,59.0123177 293.930749,59.0557199 293.085029,59.0557199 C290.352703,59.0557199 288.498652,58.3558609 287.522822,56.956122 C286.546991,55.5563831 286.059083,53.73892 286.059083,51.503678 L286.059083,28.4243779 L281.342591,28.4243779 L281.342591,23.6392479 L286.059083,23.6392479 L286.059083,13.9062285 Z M88.7493807,38.2876049 C88.5108443,35.7485436 87.9578819,33.7194952 87.0904768,32.2003988 C85.4857775,29.3792196 82.8077046,27.9686512 79.0561777,27.9686512 C76.3672221,27.9686512 74.1120027,28.9397733 72.2904521,30.8820466 C70.4689015,32.82432 69.5039279,35.2928147 69.3955023,38.2876049 L88.7493807,38.2876049 Z M103.390549,53.228929 C104.626601,54.205491 106.090326,54.6937647 107.781765,54.6937647 C109.841852,54.6937647 111.836854,54.2163415 113.76683,53.2614809 C117.019599,51.6772803 118.645959,49.0840045 118.645959,45.4815757 L118.645959,40.7615496 C117.93035,41.2172785 117.008746,41.597047 115.88112,41.9008663 C114.753493,42.2046856 113.647568,42.4216961 112.563312,42.5519043 L109.017811,43.007631 C106.892669,43.2897489 105.298836,43.7346205 104.236265,44.3422591 C102.436399,45.3622239 101.53648,46.9898028 101.53648,49.2250447 C101.53648,50.9177522 102.154497,52.252367 103.390549,53.228929 Z M46.2971767,52.9685137 C50.2655548,52.9685137 53.0954214,51.818358 54.7868612,49.5180119 C55.8494324,48.0640195 56.38071,46.3062343 56.38071,44.2446034 C56.38071,40.7723829 54.8302467,38.4069682 51.7292737,37.1482882 C50.0812041,36.4755455 47.9018816,36.1391792 45.1912408,36.1391792 L32.3428677,36.1391792 L32.3428677,52.9685137 L46.2971767,52.9685137 Z M44.1178324,30.8983226 C46.8501583,30.8983226 48.9752688,30.5185542 50.4932277,29.7590059 C52.8785916,28.5654301 54.0712556,26.4170259 54.0712556,23.3137289 C54.0712556,20.1887304 52.8026948,18.0837283 50.265535,16.9986594 C48.8343166,16.3910208 46.7092061,16.0872061 43.8901397,16.0872061 L32.3428677,16.0872061 L32.3428677,30.8983226 L44.1178324,30.8983226 Z M244.578923,40.5011344 C244.578923,37.2459277 244.058488,34.5983993 243.017602,32.5584697 C241.369532,29.3466658 238.528823,27.7407879 234.49539,27.7407879 C230.917344,27.7407879 228.315168,29.1079542 226.688783,31.8423278 C225.062399,34.5767015 224.249219,37.8752614 224.249219,41.7381067 C224.249219,45.4490424 225.062399,48.5414424 226.688783,51.0153995 C228.315168,53.4893566 230.895659,54.7263166 234.430335,54.7263166 C238.311972,54.7263166 240.973782,53.2560703 242.415843,50.3155335 C243.857904,47.3749968 244.578923,44.1035631 244.578923,40.5011344 Z" id="blue" fill="#636363"></path>
            <use id="Rectangle" stroke="#FFFFFF" mask="url(#mask-6)" stroke-width="6" fill-opacity="0.6" fill="url(#linearGradient-4)" xlink:href="#path-5"></use>
        </g>
    </g>
</svg>