<?xml version="1.0" encoding="UTF-8" standalone="no"?>
<svg width="64px" height="64px" viewBox="0 0 64 64" version="1.1" xmlns="http://www.w3.org/2000/svg" xmlns:xlink="http://www.w3.org/1999/xlink">
    <!-- Generator: Sketch 39.1 (31720) - http://www.bohemiancoding.com/sketch -->
    <title>brand-small-circle</title>
    <desc>Created with Sketch.</desc>
    <defs>
        <path d="M58.2807529,45.7353429 C60.6530494,41.3525623 62,36.3335797 62,31 C62,13.8791728 48.1208272,0 31,0 C17.5328277,0 6.07137428,8.58750346 1.79284444,20.5853057 L58.2807529,45.7353429 Z" id="path-1"></path>
        <mask id="mask-2" maskContentUnits="userSpaceOnUse" maskUnits="objectBoundingBox" x="0" y="0" width="60.2071556" height="45.7353429" fill="white">
            <use xlink:href="#path-1"></use>
        </mask>
        <linearGradient x1="50%" y1="0%" x2="50%" y2="100%" id="linearGradient-3">
            <stop stop-color="#3FE7FE" offset="0%"></stop>
            <stop stop-color="#1ECAFB" offset="45.1590402%"></stop>
            <stop stop-color="#4EB4FF" offset="83.4941008%"></stop>
        </linearGradient>
        <path d="M61.4730487,36.7217054 C58.7884325,51.1092087 46.1660566,62 31,62 C13.8791728,62 0,48.1208272 0,31 C0,23.9240797 2.37071829,17.4018704 6.36119822,12.1843287 L61.4730487,36.7217054 Z" id="path-4"></path>
        <mask id="mask-5" maskContentUnits="userSpaceOnUse" maskUnits="objectBoundingBox" x="0" y="0" width="61.4730487" height="49.8156713" fill="white">
            <use xlink:href="#path-4"></use>
        </mask>
    </defs>
    <g id="Page-1" stroke="none" stroke-width="1" fill="none" fill-rule="evenodd">
        <g id="brand-small-circle">
            <circle id="Oval-2" fill="#000000" opacity="0.100000001" cx="32" cy="32" r="32"></circle>
            <g id="Group" transform="translate(1.000000, 1.000000)" stroke="#FFFFFF" stroke-width="6">
                <use id="Combined-Shape" mask="url(#mask-2)" fill="#4A90E2" xlink:href="#path-1"></use>
                <use id="Combined-Shape" mask="url(#mask-5)" fill="url(#linearGradient-3)" xlink:href="#path-4"></use>
            </g>
        </g>
    </g>
</svg>