<?xml version="1.0" encoding="UTF-8" standalone="no"?>
<svg width="323px" height="70px" viewBox="0 0 323 70" version="1.1" xmlns="http://www.w3.org/2000/svg" xmlns:xlink="http://www.w3.org/1999/xlink">
    <!-- Generator: Sketch 3.8.3 (29802) - http://www.bohemiancoding.com/sketch -->
    <title>brand-experiment2</title>
    <desc>Created with Sketch.</desc>
    <defs>
        <path d="M197.93282,29.571231 L191.461766,29.571231 L191.461766,59.1701245 L184.753606,59.1701245 L184.753606,29.571231 L180.39676,29.571231 L180.39676,24.1770401 L184.753606,24.1770401 L184.753606,23.0013831 C184.753606,11.4522822 193.536455,10 197.962458,10 C199.483896,10 200.521241,10.2074689 200.521241,10.2074689 L200.521241,15.9474412 C200.521241,15.9474412 199.829678,15.8091286 198.792334,15.8091286 C196.164394,15.8091286 191.461766,16.6390041 191.461766,23.1396957 L191.461766,24.1770401 L198.846671,24.1770401 L204.295199,24.1770401 C207.338075,24.1770401 208.790358,25.4218534 208.790358,28.2572614 L208.790358,30.4702628 C208.790358,31.8533887 208.652045,32.8907331 208.652045,32.8907331 L208.790358,32.8907331 C210.450109,27.7731674 214.461174,23.7621024 219.855365,23.7621024 C220.754396,23.7621024 221.653428,23.9004149 221.653428,23.9004149 L221.653428,30.5394191 C221.653428,30.5394191 220.754396,30.3319502 219.647896,30.3319502 C215.360205,30.3319502 211.418297,33.3748271 209.827702,38.5615491 C209.205295,40.5670816 208.997827,42.7109267 208.997827,44.8547718 L208.997827,59.1701245 L202.289666,59.1701245 L202.289666,31.4384509 C202.289666,30.4011065 201.727814,29.6000006 200.768228,29.5799999 C200.768228,29.5799999 199.823092,29.6000004 199.350524,29.5799999 C198.877956,29.6000004 197.93282,29.5799999 197.93282,29.5799999 L197.93282,29.571231 Z M12.4951591,54.7441217 C12.4951591,57.8561549 13.8091286,59.1701245 16.9211618,59.1701245 L29.3001383,59.1701245 C37.944675,59.1701245 44.9986169,54.4674965 44.9986169,45.2697095 C44.9986169,39.8063624 42.1632089,34.9654219 36.9764869,33.4439834 L36.9764869,33.3056708 C40.2268326,31.7150761 43.0622407,28.1189488 43.0622407,22.7939142 C43.0622407,14.9100968 37.1147994,10.3457815 28.8852006,10.3457815 L8,10.3457815 L8,16.2932227 L12.4951591,16.2932227 L12.4951591,54.7441217 Z M45.6605414,41.6735823 C45.6605414,52.0470263 53.1985774,60 64.2635843,60 C72.5623395,60 77.7490615,54.8824343 77.7490615,54.8824343 L74.8444971,50.1106501 C74.8444971,50.1106501 70.6259632,54.1908714 64.6093657,54.1908714 C58.3852993,54.1908714 52.9911085,49.9723375 52.5761707,42.5034578 L78.0948429,42.5034578 C78.0948429,42.5034578 78.3023118,40.6362379 78.3023118,39.7372061 C78.3023118,30.6777317 73.0464335,23.3471646 63.2262399,23.3471646 C53.2677336,23.3471646 45.6605414,30.5394191 45.6605414,41.6735823 Z M78.9642363,49.3499308 C78.9642363,56.3347165 84.8425212,60 90.8591188,60 C99.2270302,60 101.993282,53.0843707 101.993282,53.0843707 L102.131595,53.0843707 C102.131595,53.0843707 101.993282,53.9834025 101.993282,55.1590595 C101.993282,57.648686 103.238095,59.1701245 106.350128,59.1701245 L112.643351,59.1701245 L112.643351,53.4301521 L109.807943,53.4301521 C108.839755,53.4301521 108.286505,52.9460581 108.286505,51.9087137 L108.286505,37.0401107 C108.286505,29.2946058 105.243628,23.3471646 93.9019957,23.3471646 C90.5133373,23.3471646 81.7996443,24.1770401 81.7996443,29.9170124 L81.7996443,33.3748271 L88.092867,33.3748271 L88.092867,31.3692946 C88.092867,29.0871369 92.1730883,28.6721992 93.8328394,28.6721992 C99.2961865,28.6721992 101.578344,30.8852006 101.578344,37.0401107 L101.578344,37.3858921 L100.056906,37.3858921 C94.1786208,37.3858921 78.9642363,38.077455 78.9642363,49.3499308 Z M111.576368,41.6735823 C111.576368,52.1853389 119.252717,60 130.248567,60 C139.515511,60 144.494764,53.9834025 144.494764,53.9834025 L141.5902,49.2116183 C141.5902,49.2116183 137.302509,54.0525588 130.732662,54.0525588 C124.23197,54.0525588 118.422841,49.5573997 118.422841,41.604426 C118.422841,34.2047026 123.540407,29.0871369 130.38688,29.0871369 C132.945663,29.0871369 136.887572,30.1936376 136.887572,32.6832642 L136.887572,34.6196404 L142.973325,34.6196404 L142.973325,31.0235131 C142.973325,25.0760719 134.605414,23.3471646 130.38688,23.3471646 C119.114404,23.3471646 111.576368,31.3692946 111.576368,41.6735823 Z M146.401502,59.1701245 L153.109662,59.1701245 L153.109662,42.780083 C153.109662,41.120332 153.247975,39.5297372 153.732069,38.1466113 C155.184351,33.0982019 159.472041,29.5020747 164.797076,29.5020747 C170.398735,29.5020747 171.43608,33.3748271 171.43608,38.2849239 L171.43608,54.7441217 C171.43608,57.8561549 172.750049,59.1701245 175.862083,59.1701245 L182.43193,59.1701245 L182.43193,53.4301521 L179.596522,53.4301521 C178.628334,53.4301521 178.075084,52.9460581 178.075084,51.9087137 L178.075084,36.7634855 C178.075084,27.8423237 174.340644,23.3471646 166.111045,23.3471646 C159.12626,23.3471646 154.631101,27.7731674 153.109662,31.1618257 L152.97135,31.1618257 C152.97135,31.1618257 153.109662,29.9170124 153.109662,28.2572614 L153.109662,14.6334716 C153.109662,11.659751 151.795693,10.3457815 148.683659,10.3457815 L142.044655,10.3457815 L142.044655,16.0857538 L144.880063,16.0857538 C145.848251,16.0857538 146.401502,16.5698479 146.401502,17.6071923 L146.401502,59.1701245 Z M219.341632,41.604426 C219.341632,52.2544952 227.709544,60 238.152144,60 C248.594744,60 257.031812,52.2544952 257.031812,41.604426 C257.031812,31.0235131 248.594744,23.3471646 238.152144,23.3471646 C227.709544,23.3471646 219.341632,31.0235131 219.341632,41.604426 Z M260.459988,59.1701245 L267.168149,59.1701245 L267.168149,42.780083 C267.168149,41.0511757 267.306461,39.4605809 267.790555,38.077455 C269.173681,33.0290456 273.461371,29.5020747 278.855562,29.5020747 C284.457222,29.5020747 285.42541,33.3748271 285.42541,38.2849239 L285.42541,54.7441217 C285.42541,57.8561549 286.73938,59.1701245 289.851413,59.1701245 L296.490417,59.1701245 L296.490417,53.4301521 L293.655009,53.4301521 C292.686821,53.4301521 292.13357,52.9460581 292.13357,51.9087137 L292.13357,36.7634855 C292.13357,27.8423237 288.399131,23.3471646 280.100375,23.3471646 C272.493183,23.3471646 268.343806,28.3264177 266.96068,31.3692946 L266.822367,31.3692946 C266.822367,31.3692946 266.96068,30.4702628 266.96068,29.3637621 L266.96068,28.0497925 C266.96068,25.4910097 265.508398,24.1770401 262.534677,24.1770401 L256.103142,24.1770401 L256.103142,29.9170124 L258.93855,29.9170124 C259.906738,29.9170124 260.459988,30.4011065 260.459988,31.4384509 L260.459988,59.1701245 Z M299.088718,46.3762102 C299.088718,58.0636238 308.009879,59.4467497 312.435882,59.4467497 C313.888164,59.4467497 314.787196,59.3084371 314.787196,59.3084371 L314.787196,53.3609959 C314.787196,53.3609959 314.16479,53.4993084 313.196601,53.4993084 C310.637819,53.4993084 305.796878,52.6002766 305.796878,45.615491 L305.796878,29.571231 L314.16479,29.571231 L314.16479,24.1770401 L305.796878,24.1770401 L305.796878,14.5643154 L299.22703,14.5643154 L299.22703,24.1770401 L294.524402,24.1770401 L294.524402,29.571231 L299.088718,29.571231 L299.088718,46.3762102 Z M52.8527959,37.593361 C53.8901403,31.7842324 58.0395179,28.6721992 63.1570836,28.6721992 C67.5139301,28.6721992 71.1792136,31.7842324 71.3866825,37.593361 L52.8527959,37.593361 Z M19.4107884,51.7012448 L19.4107884,36.5560166 L29.6459198,36.5560166 C34.6251729,36.5560166 37.8755187,39.944675 37.8755187,44.9239281 C37.8755187,49.9031812 34.8326418,53.2226833 29.6459198,53.2226833 L20.9322268,53.2226833 C19.9640387,53.2226833 19.4107884,52.6694329 19.4107884,51.7012448 L19.4107884,51.7012448 Z M85.7415531,49.0041494 C85.7415531,42.5726141 94.8701838,42.2959889 99.9185932,42.2959889 L101.6475,42.2959889 L101.6475,43.4716459 C101.6475,48.6583679 97.982217,54.6058091 92.3114009,54.6058091 C87.8853981,54.6058091 85.7415531,51.8395574 85.7415531,49.0041494 L85.7415531,49.0041494 Z M226.188105,41.604426 C226.188105,34.3430152 231.582296,29.1562932 238.152144,29.1562932 C244.791148,29.1562932 250.185339,34.3430152 250.185339,41.604426 C250.185339,48.9349931 244.791148,54.1908714 238.152144,54.1908714 C231.582296,54.1908714 226.188105,48.9349931 226.188105,41.604426 L226.188105,41.604426 Z M19.4107884,30.8852006 L19.4107884,16.2932227 L28.8160443,16.2932227 C33.3803596,16.2932227 36.0082988,19.197787 36.0082988,23.4854772 C36.0082988,27.7731674 33.242047,30.8852006 28.9543568,30.8852006 L19.4107884,30.8852006 Z" id="path-1"></path>
        <mask id="mask-3" maskContentUnits="userSpaceOnUse" maskUnits="objectBoundingBox" x="-3" y="-3" width="312.787196" height="56">
            <rect x="5" y="7" width="312.787196" height="56" fill="white"></rect>
            <use xlink:href="#path-1" fill="transparent"></use>
        </mask>
        <linearGradient x1="50%" y1="0%" x2="50%" y2="100%" id="linearGradient-4">
            <stop stop-color="#3FE7FE" offset="0%"></stop>
            <stop stop-color="#1ECAFB" offset="45.1590402%"></stop>
            <stop stop-color="#4EB4FF" offset="83.4941008%"></stop>
        </linearGradient>
        <path d="M-2.2471261e-13,43.210034 C-2.2471261e-13,43.210034 81.9084854,63.1179274 161.5,43.2100339 C241.091515,23.3021403 323,48.7297128 323,48.7297128 L323,70 L-2.23382077e-13,70 L-2.2471261e-13,43.210034 Z" id="path-5"></path>
        <mask id="mask-6" maskContentUnits="userSpaceOnUse" maskUnits="objectBoundingBox" x="-2" y="-2" width="327" height="38.4032208">
            <rect x="-2" y="33.5967792" width="327" height="38.4032208" fill="white"></rect>
            <use xlink:href="#path-5" fill="black"></use>
        </mask>
    </defs>
    <g id="Page-1" stroke="none" stroke-width="1" fill="none" fill-rule="evenodd">
        <g id="brand-experiment2">
            <rect id="Rectangle-25" fill="#FFFFFF" x="0" y="0" width="323" height="70"></rect>
            <mask id="mask-2" fill="white">
                <use xlink:href="#path-1"></use>
            </mask>
            <g id="Mask">
                <use fill="#FFFFFF" fill-rule="evenodd" xlink:href="#path-1"></use>
                <use fill="black" fill-opacity="1" xlink:href="#path-1"></use>
                <use stroke="#FFFFFF" mask="url(#mask-3)" stroke-width="6" xlink:href="#path-1"></use>
            </g>
            <rect id="Rectangle-7" fill="#4990E2" mask="url(#mask-2)" x="0" y="0" width="323" height="57.8846154"></rect>
            <g id="Wave" mask="url(#mask-2)">
                <use fill="url(#linearGradient-4)" fill-rule="evenodd" xlink:href="#path-5"></use>
                <use stroke="#FFFFFF" mask="url(#mask-6)" stroke-width="4" xlink:href="#path-5"></use>
            </g>
        </g>
    </g>
</svg>
